<svg width="49" height="52" viewBox="0 0 49 52" fill="none" xmlns="http://www.w3.org/2000/svg">
<path d="M17.6872 21.7766C17.6128 22.0687 17.3495 22.2626 17.0604 22.2626C17.0075 22.2626 16.9535 22.2562 16.8996 22.2422C16.5835 22.1613 16.276 22.074 15.9879 21.9814C15.6469 21.8725 15.4592 21.5093 15.5682 21.1688C15.6771 20.8283 16.0408 20.6407 16.3817 20.7496C16.646 20.8336 16.9287 20.9145 17.22 20.9888C17.5664 21.0783 17.7757 21.4307 17.6872 21.7766ZM24.0735 21.7475C22.3947 21.7475 20.7903 21.6333 19.3024 21.407C18.9485 21.3531 18.6184 21.5956 18.5655 21.949C18.5126 22.3025 18.7543 22.6323 19.1082 22.6851C20.6597 22.9211 22.331 23.0407 24.0746 23.0407C24.4317 23.0407 24.722 22.7508 24.722 22.3941C24.722 22.0374 24.4307 21.7475 24.0735 21.7475ZM19.3024 28.1823C18.9485 28.1284 18.6184 28.3709 18.5655 28.7244C18.5115 29.0779 18.7543 29.4076 19.1082 29.4604C20.6597 29.6965 22.331 29.8161 24.0746 29.8161C24.4317 29.8161 24.722 29.5262 24.722 29.1695C24.722 28.8128 24.4317 28.5229 24.0746 28.5229C22.3947 28.5229 20.7892 28.4086 19.3024 28.1823ZM17.22 27.7653C16.9287 27.6909 16.646 27.6101 16.3817 27.526C16.0408 27.4172 15.6771 27.6047 15.5682 27.9452C15.4592 28.2858 15.6469 28.649 15.9879 28.7578C16.277 28.8505 16.5835 28.9378 16.8996 29.0186C16.9535 29.0326 17.0075 29.0391 17.0604 29.0391C17.3495 29.0391 17.6128 28.8451 17.6872 28.553C17.7757 28.206 17.5664 27.8536 17.22 27.7653ZM17.22 34.5417C16.9287 34.4673 16.646 34.3865 16.3817 34.3024C16.0408 34.1936 15.6771 34.3811 15.5682 34.7217C15.4592 35.0622 15.6469 35.4254 15.9879 35.5342C16.277 35.6269 16.5835 35.7142 16.8996 35.795C16.9535 35.809 17.0075 35.8155 17.0604 35.8155C17.3495 35.8155 17.6128 35.6215 17.6872 35.3295C17.7757 34.9825 17.5664 34.6301 17.22 34.5417ZM24.0735 35.2982C22.3958 35.2982 20.7903 35.184 19.3024 34.9577C18.9496 34.9027 18.6194 35.1463 18.5655 35.4997C18.5115 35.8532 18.7543 36.183 19.1082 36.2358C20.6608 36.4718 22.331 36.5914 24.0746 36.5914C24.4317 36.5914 24.722 36.3015 24.722 35.9448C24.722 35.5881 24.4307 35.2982 24.0735 35.2982ZM38.9242 35.8252C37.7514 36.5257 36.4599 36.8598 35.1835 36.8598C32.6954 36.8598 30.2689 35.5935 28.9008 33.311C26.8313 29.857 27.961 25.3663 31.418 23.2994C33.0925 22.2982 35.0573 22.0083 36.9508 22.4836C38.8444 22.9588 40.4391 24.141 41.4414 25.8147C42.4437 27.4872 42.734 29.4507 42.2582 31.341C41.7834 33.2312 40.5998 34.824 38.9242 35.8252ZM40.3312 26.4774C39.5068 25.1012 38.1938 24.1281 36.6368 23.7369C35.0788 23.3468 33.4626 23.585 32.0837 24.4083C29.2385 26.1089 28.3095 29.8042 30.0121 32.6461C31.7147 35.4879 35.4144 36.4158 38.2596 34.7152C41.1048 33.0146 42.0337 29.3193 40.3312 26.4774ZM47.777 48.0633C47.2246 49.0806 46.1445 49.7337 45.0192 49.7337C45.0073 49.7337 44.9965 49.7337 44.9858 49.7337C43.8399 49.7208 42.8322 49.03 42.2204 47.8391L37.7352 39.0992C36.8958 39.3244 36.0391 39.4343 35.1878 39.4343C34.0236 39.4343 32.8702 39.2285 31.7816 38.833C31.746 38.8438 31.7103 38.8545 31.6747 38.8642V47.365C31.6747 48.0687 32.2477 48.6409 32.9533 48.6409H35.1986L34.2912 47.7346C34.0387 47.4824 34.0387 47.0729 34.2912 46.8207C34.5437 46.5686 34.9537 46.5686 35.2061 46.8207L37.2195 48.8317C37.4719 49.0839 37.4719 49.4934 37.2195 49.7455L35.2061 51.7565C35.0799 51.8826 34.9137 51.9462 34.7487 51.9462C34.5836 51.9462 34.4174 51.8826 34.2912 51.7565C34.0387 51.5043 34.0387 51.0948 34.2912 50.8426L35.1986 49.9363H32.9533C31.5345 49.9363 30.38 48.7832 30.38 47.3671V39.1832C28.7087 39.5335 26.7666 39.7382 24.722 39.7738V49.7402L25.6294 48.8338C25.8819 48.5817 26.2919 48.5817 26.5443 48.8338C26.7968 49.086 26.7968 49.4955 26.5443 49.7477L24.531 51.7586C24.4048 51.8847 24.2386 51.9483 24.0735 51.9483C23.9085 51.9483 23.7423 51.8847 23.6161 51.7586L21.6027 49.7477C21.3503 49.4955 21.3503 49.086 21.6027 48.8338C21.8552 48.5817 22.2652 48.5817 22.5177 48.8338L23.4251 49.7402V39.7738C21.4398 39.7382 19.4718 39.5399 17.7671 39.1854V47.3682C17.7671 48.7853 16.6126 49.9374 15.1938 49.9374H12.9496L13.857 50.8437C14.1094 51.0959 14.1094 51.5054 13.857 51.7576C13.7307 51.8837 13.5646 51.9472 13.3995 51.9472C13.2344 51.9472 13.0682 51.8837 12.942 51.7576L10.9287 49.7466C10.6762 49.4944 10.6762 49.0849 10.9287 48.8328L12.942 46.8218C13.1945 46.5696 13.6045 46.5696 13.857 46.8218C14.1094 47.074 14.1094 47.4835 13.857 47.7357L12.9496 48.642H15.1949C15.8994 48.642 16.4734 48.0698 16.4734 47.366V38.8686C14.1289 38.2047 12.532 37.1831 12.532 35.8209V33.2194C11.4973 33.2237 10.4637 33.228 9.42895 33.2312C4.22949 33.2312 0 29.0078 0 23.8156C0 21.4619 0.873949 19.2096 2.46109 17.4724C3.84862 15.9528 5.67636 14.9388 7.67565 14.5637C7.30341 13.444 7.11568 12.2747 7.11568 11.0785C7.11568 4.96917 12.0907 0 18.2051 0C22.6277 0 26.6188 2.64031 28.3699 6.64388C29.7294 5.9186 31.2486 5.53818 32.8055 5.53818C38.0028 5.53818 42.2323 9.76159 42.2323 14.9538V14.9829C45.7885 16.4076 48.146 19.8605 48.146 23.7218C48.146 26.4203 46.9958 28.9712 44.9814 30.759C44.9307 31.1632 44.8584 31.5662 44.7581 31.9671C44.3103 33.7474 43.3965 35.3327 42.119 36.5882L47.518 44.6718C48.255 45.7743 48.3488 47.0104 47.777 48.0633ZM12.532 31.924V15.9485C12.532 13.3503 18.3378 11.9902 24.0735 11.9902C29.8092 11.9902 35.6151 13.3503 35.6151 15.9485V19.7021C38.8163 19.8508 41.8881 21.5449 43.6543 24.4913C44.4603 25.8373 44.9232 27.3223 45.0332 28.8429C46.2028 27.4064 46.8523 25.6067 46.8523 23.7218C46.8523 20.2517 44.6459 17.1642 41.3626 16.038C41.0886 15.9442 40.9106 15.6802 40.9267 15.3925C40.9343 15.2448 40.9386 15.0961 40.9386 14.9528C40.9386 10.4739 37.2907 6.83031 32.8066 6.83031C31.2367 6.83031 29.7121 7.27863 28.399 8.12568C28.2329 8.23345 28.0268 8.25823 27.8391 8.19465C27.6513 8.13107 27.5035 7.98558 27.4377 7.79915C26.0523 3.90873 22.3429 1.29321 18.2051 1.29321C12.8039 1.29321 8.41042 5.68151 8.41042 11.0764C8.41042 12.3803 8.66289 13.6455 9.16137 14.8385C9.24013 15.0282 9.22503 15.2437 9.11929 15.4194C9.01355 15.5951 8.83121 15.7114 8.62621 15.7308C4.44635 16.1382 1.29474 19.6126 1.29474 23.8134C1.29474 28.2922 4.94267 31.9359 9.42571 31.9359C10.4604 31.9326 11.4962 31.9283 12.532 31.924ZM34.3203 19.7258V17.8754C32.2897 19.215 28.1638 19.9068 24.0735 19.9068C19.9832 19.9068 15.8573 19.215 13.8267 17.8754V22.5719C13.8267 23.0159 14.6716 23.7218 16.5586 24.2951C18.5569 24.9029 21.2251 25.237 24.0735 25.237C24.832 25.237 25.5851 25.2112 26.3199 25.1637C27.1518 23.4847 28.4465 22.0751 30.0941 21.0901C31.4255 20.2937 32.8702 19.8486 34.3203 19.7258ZM25.7794 26.4882C25.2161 26.5152 24.6465 26.5292 24.0735 26.5292C19.9832 26.5292 15.8573 25.8373 13.8267 24.4977V29.1943C13.8267 29.6383 14.6716 30.3441 16.5586 30.9175C18.5569 31.5253 21.2251 31.8594 24.0735 31.8594C24.5677 31.8594 25.0597 31.8475 25.5474 31.8281C25.187 30.3086 25.1924 28.7147 25.5841 27.1564C25.6413 26.9301 25.7081 26.7081 25.7794 26.4882ZM16.5651 17.6696C18.5677 18.2785 21.2337 18.6136 24.0735 18.6136C26.9133 18.6136 29.5805 18.2785 31.582 17.6696C33.4734 17.0952 34.3203 16.3904 34.3203 15.9485C34.3203 15.5067 33.4734 14.8019 31.582 14.2275C29.5794 13.6186 26.9133 13.2834 24.0735 13.2834C21.2337 13.2834 18.5666 13.6186 16.5651 14.2275C14.6737 14.8019 13.8267 15.5067 13.8267 15.9485C13.8267 16.3904 14.6737 17.0941 16.5651 17.6696ZM29.9571 37.9471C28.658 37.1443 27.5262 36.0289 26.6889 34.6322C26.3944 34.1397 26.1473 33.6289 25.9444 33.1051C25.3284 33.1364 24.7015 33.1536 24.0735 33.1536C19.9832 33.1536 15.8573 32.4618 13.8267 31.1222V35.8187C13.8267 36.2627 14.6716 36.9686 16.5586 37.5419C18.5569 38.1497 21.2251 38.4838 24.0735 38.4838C26.2045 38.4827 28.234 38.2963 29.9571 37.9471ZM39.5834 36.9244C43.6479 34.4953 44.976 29.2147 42.543 25.1551C40.9354 22.4728 38.0816 20.9834 35.1576 20.9834C33.6568 20.9834 32.1387 21.3757 30.7598 22.1991C28.7907 23.3759 27.3989 25.2489 26.84 27.4711C26.2811 29.6943 26.622 32.0016 27.8002 33.9684C29.4079 36.6507 32.2617 38.14 35.1856 38.14C36.6865 38.14 38.2045 37.7489 39.5834 36.9244ZM38.9728 38.6757L40.1251 40.9205L42.5301 39.5335L41.1317 37.4385C40.8491 37.6508 40.5556 37.8502 40.2481 38.0344C39.8327 38.2823 39.4065 38.4946 38.9728 38.6757ZM46.4413 45.3896L43.2508 40.6122L40.7163 42.0736L43.3727 47.2486C43.7687 48.0202 44.3319 48.4319 45.0009 48.4405C45.6525 48.4469 46.3118 48.0493 46.6387 47.4469C46.9786 46.8197 46.9095 46.089 46.4413 45.3896ZM37.9327 27.0572L34.2912 30.6944L32.4117 28.8171C32.1592 28.5649 31.7492 28.5649 31.4956 28.8171C31.2432 29.0692 31.2432 29.4788 31.4956 29.732L33.8337 32.0673C33.9556 32.1891 34.1196 32.257 34.2912 32.257C34.4627 32.257 34.6278 32.1891 34.7487 32.0673L38.8487 27.9722C39.1012 27.72 39.1012 27.3105 38.8487 27.0583C38.5951 26.805 38.1851 26.805 37.9327 27.0572Z" fill="white"/>
</svg>
