<svg width="68" height="13" viewBox="0 0 68 13" fill="none" xmlns="http://www.w3.org/2000/svg">
<path d="M49.28 1.33V11.12C49.28 11.85 48.68 12.45 47.95 12.45H38.16C37.43 12.45 36.83 11.85 36.83 11.12V1.33C36.83 0.600002 37.43 0 38.16 0H47.95C48.68 0 49.28 0.600002 49.28 1.33ZM11.12 0H1.32999C0.599987 0 0 0.600002 0 1.33V11.12C0 11.85 0.599987 12.45 1.32999 12.45H11.12C11.85 12.45 12.45 11.85 12.45 11.12V1.33C12.45 0.600002 11.85 0 11.12 0ZM30.05 0H20.26C19.53 0 18.92 0.600002 18.92 1.33V11.12C18.92 11.85 19.52 12.45 20.26 12.45H30.05C30.78 12.45 31.38 11.85 31.38 11.12V1.33C31.38 0.600002 30.78 0 30.05 0ZM66.56 0H56.77C56.04 0 55.44 0.600002 55.44 1.33V11.12C55.44 11.85 56.04 12.45 56.77 12.45H66.56C67.29 12.45 67.9 11.85 67.9 11.12V1.33C67.9 0.600002 67.3 0 66.56 0Z" fill="url(#paint0_linear_1_4)"/>
<defs>
<linearGradient id="paint0_linear_1_4" x1="-0.01" y1="6.23" x2="67.9" y2="6.23" gradientUnits="userSpaceOnUse">
<stop stop-color="#FCB017"/>
<stop offset="1" stop-color="#EE3024"/>
</linearGradient>
</defs>
</svg>
