<svg width="44" height="45" viewBox="0 0 44 45" fill="none" xmlns="http://www.w3.org/2000/svg">
<path d="M13.9389 27.6374C14.1221 27.7138 14.3282 27.7143 14.5118 27.6388C14.6954 27.5633 14.8415 27.4179 14.9179 27.2347L15.9733 24.701H19.9659L21.0213 27.2347C21.1804 27.6163 21.6188 27.7965 22.0003 27.6374C22.3819 27.4783 22.5622 27.0399 22.403 26.6584L18.6605 17.6763C18.5443 17.3975 18.2718 17.2158 17.9697 17.2158C17.6676 17.2158 17.3951 17.3975 17.2788 17.6763L13.5363 26.6584C13.4598 26.8416 13.4593 27.0477 13.5348 27.2313C13.6103 27.4149 13.7556 27.561 13.9389 27.6374ZM17.9696 19.9105L19.3416 23.204H16.5976L17.9696 19.9105Z" fill="url(#paint0_linear_263_620)"/>
<path fill-rule="evenodd" clip-rule="evenodd" d="M23.9579 26.1979C23.5445 26.1979 23.2094 26.533 23.2094 26.9464C23.2094 27.3599 23.5445 27.695 23.9579 27.695H28.4489C28.8623 27.695 29.1974 27.3599 29.1974 26.9464C29.1974 26.533 28.8623 26.1979 28.4489 26.1979H26.9519V18.7129H28.4489C28.8623 18.7129 29.1974 18.3778 29.1974 17.9643C29.1974 17.5509 28.8623 17.2158 28.4489 17.2158H23.9579C23.5445 17.2158 23.2094 17.5509 23.2094 17.9643C23.2094 18.3778 23.5445 18.7129 23.9579 18.7129H25.4549V26.1979H23.9579Z" fill="url(#paint1_linear_263_620)"/>
<path d="M0.00577056 32.9343C0.00577056 34.5879 1.34627 35.9283 2.99978 35.9283C3.37481 35.9269 3.74616 35.8543 4.09409 35.7143C5.86355 37.0691 8.36061 37.7757 11.4295 37.7757C11.892 37.7757 12.3726 37.7539 12.8598 37.7225C15.0335 42.1642 18.1698 44.9104 21.7124 44.9104C25.2551 44.9104 28.3914 42.1642 30.5658 37.7248C31.0538 37.7562 31.5336 37.7779 31.9961 37.7779C35.065 37.7779 37.562 37.0713 39.3315 35.7165C39.6794 35.8556 40.0504 35.9275 40.4251 35.9283C41.7466 35.9246 42.9093 35.0549 43.2862 33.7882C43.6631 32.5216 43.165 31.1576 42.0605 30.432C42.1653 28.0218 41.2334 25.2868 39.3367 22.4552C41.2334 19.6243 42.1654 16.8893 42.0605 14.4783C43.3546 13.6432 43.8016 11.9612 43.093 10.5938C42.3845 9.22645 40.7524 8.62188 39.324 9.19758C37.2903 7.64145 34.2873 6.95209 30.5664 7.1946C28.3945 2.74929 25.2567 0 21.7125 0C18.1683 0 15.0306 2.74929 12.8561 7.19467C9.13682 6.95363 6.1353 7.64374 4.09858 9.19765C2.67108 8.62659 1.04321 9.23205 0.335795 10.5972C-0.371621 11.9623 0.0723647 13.6414 1.36204 14.4784C1.25876 16.8879 2.19137 19.6229 4.08812 22.4553C2.19137 25.2868 1.25876 28.0219 1.36432 30.4321C0.51775 30.9831 0.00672822 31.9243 0.00577056 32.9343ZM1.50281 32.9343C1.50281 32.1076 2.17303 31.4373 2.99985 31.4373C3.82668 31.4373 4.49689 32.1075 4.49689 32.9343C4.49689 33.7612 3.82668 34.4314 2.99985 34.4314C2.60279 34.4314 2.22201 34.2737 1.94127 33.9929C1.66053 33.7122 1.50281 33.3314 1.50281 32.9343ZM13.7851 8.77252C15.7777 9.01113 17.7409 9.4518 19.6444 10.0877C18.3046 10.6856 16.9963 11.3516 15.7245 12.0832C14.4482 12.8198 13.212 13.6236 12.0209 14.4911C12.4133 12.53 13.0044 10.6139 13.7851 8.77252ZM31.4034 14.4911C30.2127 13.6235 28.9766 12.8197 27.7005 12.0832C26.4306 11.3525 25.1245 10.6865 23.7873 10.0877C25.6889 9.45209 27.65 9.0115 29.6407 8.77252C30.4209 10.614 31.0114 12.53 31.4034 14.4911ZM29.6399 36.138C27.6473 35.8994 25.6841 35.4587 23.7806 34.8228C25.1204 34.2249 26.4288 33.5589 27.7005 32.8273C28.9768 32.0907 30.213 31.2869 31.4042 30.4194C31.0117 32.3805 30.4206 34.2966 29.6399 36.138ZM26.9521 13.3803C28.6401 14.3518 30.2537 15.4468 31.7799 16.6566C32.0552 18.5772 32.1928 20.515 32.1916 22.4553C32.193 24.3955 32.0557 26.3333 31.7807 28.254C30.2542 29.4636 28.6402 30.5587 26.9521 31.5302C25.2693 32.5035 23.5182 33.3535 21.7125 34.0736C19.9067 33.3531 18.1556 32.5026 16.4729 31.5286C14.7849 30.5572 13.1713 29.4622 11.6451 28.2524C11.0972 24.406 11.0972 20.5014 11.6451 16.655C13.1714 15.4459 14.7851 14.3513 16.4729 13.3803C18.1571 12.4062 19.9097 11.5557 21.717 10.8353C23.5212 11.5561 25.2709 12.4066 26.9521 13.3803ZM33.4641 18.0712C34.957 19.3929 36.3129 20.8616 37.5113 22.4553C36.3146 24.0486 34.9604 25.5173 33.4694 26.8393C33.6163 25.3826 33.6896 23.9194 33.6887 22.4553C33.6891 20.9911 33.6154 19.5279 33.4679 18.0712H33.4641ZM9.96093 26.8393C8.46764 25.518 7.11167 24.0492 5.91371 22.4553C7.11042 20.8619 8.46455 19.3932 9.95562 18.0712C9.66118 20.9865 9.66118 23.924 9.95562 26.8393H9.96093ZM15.7289 32.8273C16.9988 33.558 18.3049 34.224 19.6421 34.8228C17.7406 35.4584 15.7794 35.899 13.7888 36.138C13.0083 34.2966 12.4175 32.3805 12.0253 30.4194C13.2148 31.2869 14.4496 32.0907 15.7244 32.8273H15.7289ZM21.7125 43.4135C18.9011 43.4135 16.3464 41.1837 14.4624 37.5669C16.9431 37.2152 19.3756 36.5813 21.7125 35.6777C24.0503 36.5818 26.4838 37.2156 28.9655 37.5669C27.0778 41.1837 24.5239 43.4135 21.7125 43.4135ZM40.4252 34.4314C39.5985 34.4314 38.9282 33.7612 38.9282 32.9343C38.9282 32.1075 39.5984 31.4373 40.4252 31.4373C41.2521 31.4373 41.9223 32.1075 41.9223 32.9343C41.9223 33.7612 41.252 34.4314 40.4252 34.4314ZM40.5824 29.956C40.5292 29.956 40.4791 29.9403 40.4252 29.9403C38.7716 29.9403 37.4311 31.2808 37.4311 32.9343C37.4339 33.6037 37.6632 34.2524 38.0816 34.7749C36.4514 35.8505 34.0718 36.3617 31.2215 36.2547C32.1496 33.9363 32.8073 31.5185 33.1819 29.0495C35.1179 27.4906 36.87 25.7162 38.4042 23.7606C39.668 25.5955 40.4199 27.734 40.5824 29.956ZM41.9222 11.9761C41.9222 12.8029 41.252 13.4732 40.4252 13.4732C39.5983 13.4732 38.9281 12.8029 38.9281 11.9761C38.9281 11.1493 39.5983 10.4791 40.4252 10.4791C41.252 10.4791 41.9222 11.1494 41.9222 11.9761ZM38.0816 10.1356C37.6633 10.6581 37.434 11.3068 37.4311 11.9761C37.4311 13.6297 38.7716 14.9701 40.4252 14.9701C40.4791 14.9701 40.5292 14.9574 40.5824 14.9544C40.4201 17.1765 39.6682 19.3151 38.4042 21.1498C36.8697 19.1942 35.1174 17.4197 33.1811 15.8609C32.8061 13.3918 32.1475 10.974 31.2185 8.65576C34.0712 8.54799 36.4521 9.05695 38.0816 10.1356ZM21.7125 1.49704C24.5239 1.49704 27.0786 3.72684 28.9626 7.34362C26.4831 7.6956 24.0519 8.32942 21.7163 9.23286C19.3785 8.32876 16.945 7.69494 14.4632 7.34362C16.3472 3.72684 18.9011 1.49704 21.7125 1.49704ZM2.99978 10.4791C3.82653 10.4791 4.49682 11.1494 4.49682 11.9762C4.49682 12.803 3.82661 13.4732 2.99978 13.4732C2.17295 13.4732 1.50274 12.803 1.50274 11.9762C1.50274 11.1494 2.17303 10.4791 2.99978 10.4791ZM2.84265 14.9544C2.89576 14.9544 2.94593 14.9701 2.99985 14.9701C4.65344 14.9701 5.99386 13.6296 5.99386 11.9761C5.99106 11.3068 5.76182 10.658 5.34339 10.1356C6.97288 9.05997 9.35237 8.54946 12.2035 8.65576C11.2755 10.9742 10.6177 13.3919 10.2431 15.8609C8.30735 17.4197 6.55527 19.1939 5.02081 21.1491C3.75655 19.3147 3.00464 17.1763 2.84265 14.9544ZM5.02081 23.7614C6.55601 25.7164 8.30852 27.4906 10.2446 29.0495C10.6196 31.5189 11.2779 33.9368 12.2065 36.2554C9.35768 36.3632 6.97664 35.8505 5.34641 34.7749C5.76373 34.252 5.99187 33.6033 5.99386 32.9343C5.99386 31.2807 4.65336 29.9403 2.99985 29.9403C2.94593 29.9403 2.89584 29.9538 2.84265 29.956C3.00494 27.7342 3.75677 25.5959 5.02081 23.7614Z" fill="url(#paint2_linear_263_620)"/>
<defs>
<linearGradient id="paint0_linear_263_620" x1="13.4775" y1="22.454" x2="22.4609" y2="22.454" gradientUnits="userSpaceOnUse">
<stop stop-color="#FCB017"/>
<stop offset="1" stop-color="#EE3024"/>
</linearGradient>
<linearGradient id="paint1_linear_263_620" x1="23.2086" y1="22.4538" x2="29.1974" y2="22.4538" gradientUnits="userSpaceOnUse">
<stop stop-color="#FCB017"/>
<stop offset="1" stop-color="#EE3024"/>
</linearGradient>
<linearGradient id="paint2_linear_263_620" x1="-0.00480441" y1="22.4485" x2="43.4284" y2="22.4485" gradientUnits="userSpaceOnUse">
<stop stop-color="#FCB017"/>
<stop offset="1" stop-color="#EE3024"/>
</linearGradient>
</defs>
</svg>
