<?xml version="1.0" encoding="UTF-8"?>
<svg id="Layer_1" data-name="Layer 1" xmlns="http://www.w3.org/2000/svg" xmlns:xlink="http://www.w3.org/1999/xlink" viewBox="0 0 512 512">
  <defs>
    <style>
      .cls-1 {
        fill: url(#linear-gradient-8);
      }

      .cls-2 {
        fill: url(#linear-gradient-7);
      }

      .cls-3 {
        fill: url(#linear-gradient-5);
      }

      .cls-4 {
        fill: url(#linear-gradient-6);
      }

      .cls-5 {
        fill: url(#linear-gradient-9);
      }

      .cls-6 {
        fill: url(#linear-gradient-4);
      }

      .cls-7 {
        fill: url(#linear-gradient-3);
      }

      .cls-8 {
        fill: url(#linear-gradient-2);
      }

      .cls-9 {
        fill: url(#linear-gradient);
      }

      .cls-10 {
        fill: url(#linear-gradient-10);
      }

      .cls-11 {
        fill: url(#linear-gradient-11);
      }
    </style>
    <linearGradient id="linear-gradient" x1="182.08" y1="175.36" x2="340.41" y2="175.36" gradientUnits="userSpaceOnUse">
      <stop offset=".19" stop-color="#5fa3ff" stop-opacity=".2"/>
      <stop offset=".21" stop-color="#5497fb" stop-opacity=".27"/>
      <stop offset=".28" stop-color="#3678f1" stop-opacity=".46"/>
      <stop offset=".36" stop-color="#1e5fe9" stop-opacity=".61"/>
      <stop offset=".42" stop-color="#0d4ee3" stop-opacity=".71"/>
      <stop offset=".49" stop-color="#0343e0" stop-opacity=".78"/>
      <stop offset=".54" stop-color="#0040df" stop-opacity=".8"/>
      <stop offset=".61" stop-color="#004edf" stop-opacity=".81"/>
      <stop offset=".74" stop-color="#0075df" stop-opacity=".85"/>
      <stop offset=".92" stop-color="#00b4df" stop-opacity=".92"/>
      <stop offset="1" stop-color="#00d5df" stop-opacity=".95"/>
    </linearGradient>
    <linearGradient id="linear-gradient-2" x1="148.73" y1="311.36" x2="236.62" y2="311.36" gradientUnits="userSpaceOnUse">
      <stop offset=".52" stop-color="#7800bf" stop-opacity=".2"/>
      <stop offset=".56" stop-color="#8400bb" stop-opacity=".35"/>
      <stop offset=".63" stop-color="#9600b5" stop-opacity=".54"/>
      <stop offset=".7" stop-color="#a500b1" stop-opacity=".71"/>
      <stop offset=".77" stop-color="#b000ae" stop-opacity=".84"/>
      <stop offset=".85" stop-color="#b800ab" stop-opacity=".93"/>
      <stop offset=".92" stop-color="#bd00aa" stop-opacity=".98"/>
      <stop offset="1" stop-color="#bf00aa"/>
    </linearGradient>
    <linearGradient id="linear-gradient-3" x1="124.26" y1="286.71" x2="212.1" y2="286.71" xlink:href="#linear-gradient-2"/>
    <linearGradient id="linear-gradient-4" x1="254.33" y1="260.32" x2="382.98" y2="260.32" gradientUnits="userSpaceOnUse">
      <stop offset="0" stop-color="#fff33b" stop-opacity=".1"/>
      <stop offset=".06" stop-color="#fee128" stop-opacity=".14"/>
      <stop offset=".17" stop-color="#fdcd12" stop-opacity=".19"/>
      <stop offset=".28" stop-color="#fdc70c" stop-opacity=".2"/>
      <stop offset=".67" stop-color="#f3903f" stop-opacity=".4"/>
      <stop offset=".89" stop-color="#ed683c"/>
      <stop offset="1" stop-color="#e93e3a"/>
    </linearGradient>
    <linearGradient id="linear-gradient-5" x1="249.75" y1="367.25" x2="333.79" y2="367.25" xlink:href="#linear-gradient-4"/>
    <linearGradient id="linear-gradient-6" x1="198.47" y1="370.03" x2="267.99" y2="370.03" xlink:href="#linear-gradient-2"/>
    <linearGradient id="linear-gradient-7" x1="191.85" y1="140.25" x2="230.05" y2="140.25" xlink:href="#linear-gradient-4"/>
    <linearGradient id="linear-gradient-8" x1="93.28" y1="251.48" x2="154.21" y2="251.48" xlink:href="#linear-gradient-4"/>
    <linearGradient id="linear-gradient-9" x1="349.38" y1="255.08" x2="418.42" y2="255.08" xlink:href="#linear-gradient"/>
    <linearGradient id="linear-gradient-10" x1="35.54" y1="176.81" x2="444" y2="176.81" xlink:href="#linear-gradient"/>
    <linearGradient id="linear-gradient-11" x1="67.86" y1="333.94" x2="476.46" y2="333.94" xlink:href="#linear-gradient-4"/>
  </defs>
  <path class="cls-9" d="M214.32,232.33c-7.44.03-14.57-2.92-19.82-8.19l-4.23-4.18c-10.93-10.95-10.93-28.68,0-39.64l37.84-37.79c5.27-5.33,12.48-8.29,19.98-8.19,7.44-.03,14.57,2.92,19.82,8.19l5.76,5.76c3.45,3.81,8.16,6.23,13.27,6.82,5.66-.31,10.95-2.88,14.69-7.13l27.91-27.96c2.72-2.39,6.86-2.12,9.25.6,2.18,2.47,2.18,6.18,0,8.65l-27.91,27.96c-6.22,7-15.16,10.99-24.52,10.94-8.59-.7-16.59-4.63-22.41-10.99l-5.29-5.29c-2.8-2.82-6.6-4.4-10.57-4.39-3.97,0-7.77,1.57-10.57,4.39l-37.84,37.79c-5.8,5.85-5.8,15.29,0,21.14l4.23,4.18c5.92,5.64,15.22,5.64,21.14,0l34.19-32.71c2.56-2.55,6.69-2.55,9.25,0,2.55,2.52,2.58,6.64.06,9.19-.02.02-.04.04-.06.06l-34.09,32.61c-5.3,5.35-12.55,8.31-20.08,8.19h0Z"/>
  <path class="cls-8" d="M173.78,355.42c-5.95.06-11.66-2.28-15.86-6.5l-2.75-2.75c-4.19-4.2-6.52-9.92-6.45-15.86-.02-5.86,2.32-11.48,6.5-15.59l40.96-40.96c8.63-8.62,22.61-8.62,31.23,0l2.75,2.7c8.6,8.66,8.6,22.63,0,31.29l-40.75,41.17c-4.14,4.16-9.77,6.5-15.64,6.5h0ZM167.39,339.56c3.53,3.53,9.25,3.54,12.78,0,0,0,0,0,0,0l40.96-40.96c1.62-1.62,2.57-3.79,2.64-6.08,0-2.38-.95-4.67-2.64-6.34l-2.75-2.75c-3.57-3.39-9.17-3.39-12.74,0l-40.96,40.8c-1.72,1.68-2.68,3.99-2.64,6.39-.01,2.37.92,4.66,2.59,6.34l2.75,2.59Z"/>
  <path class="cls-7" d="M149,330.63c-5.84.02-11.45-2.28-15.59-6.39l-2.7-2.75c-8.6-8.66-8.6-22.63,0-31.29l40.96-40.96c8.66-8.6,22.63-8.6,31.29,0l2.7,2.75c8.6,8.66,8.6,22.63,0,31.29l-41.01,40.96c-4.16,4.12-9.79,6.42-15.64,6.39h0ZM142.65,314.78c3.52,3.5,9.21,3.5,12.74,0l40.96-40.96c3.53-3.53,3.54-9.25,0-12.78h0s-2.7-2.76-2.7-2.76c-3.6-3.37-9.19-3.37-12.79,0l-40.96,41.01c-1.7,1.67-2.65,3.96-2.64,6.34,0,2.4.94,4.7,2.64,6.39l2.75,2.75Z"/>
  <path class="cls-6" d="M358.13,337.03c-5.86.01-11.48-2.33-15.59-6.5-2.55-2.52-2.58-6.64-.06-9.19.02-.02.04-.04.06-.06,2.56-2.55,6.69-2.55,9.25,0,3.5,3.52,9.19,3.53,12.71.03.01-.01.02-.02.03-.03l2.7-2.7c3.51-3.54,3.51-9.25,0-12.79l-111.25-111.3c-2.39-2.72-2.12-6.86.6-9.25,2.47-2.18,6.18-2.18,8.65,0l111.3,111.3c8.62,8.63,8.62,22.61,0,31.23l-2.7,2.75c-4.16,4.16-9.81,6.5-15.7,6.5h0Z"/>
  <path class="cls-3" d="M284.29,410.86c-5.94.09-11.66-2.24-15.86-6.45l-16.75-16.75c-2.55-2.52-2.58-6.64-.06-9.19.02-.02.04-.04.06-.06,2.56-2.55,6.69-2.55,9.25,0l16.97,17.02c3.57,3.39,9.17,3.39,12.74,0l2.75-2.75c1.7-1.69,2.65-4,2.64-6.39,0-1.66-.46-3.28-1.32-4.7-.55-.45-1.08-.92-1.59-1.43l-18.34-18.34c-2.41-2.7-2.16-6.85.54-9.25,2.46-2.19,6.17-2.21,8.66-.05l18.6,18.08c.52.52,1.01,1.07,1.48,1.64,1.42.87,3.04,1.32,4.7,1.32,2.4,0,4.7-.94,6.39-2.64l2.75-2.7c3.48-3.55,3.48-9.24,0-12.79l-20.14-20.61c-2.55-2.48-2.61-6.56-.13-9.12.04-.04.09-.09.13-.13,2.56-2.55,6.69-2.55,9.25,0l20.35,20.35c8.56,8.63,8.56,22.55,0,31.18l-2.75,2.7c-4.05,4.1-9.56,6.42-15.33,6.45-.03,5.76-2.35,11.28-6.45,15.33l-2.7,2.75c-4.18,4.25-9.9,6.61-15.86,6.55h0Z"/>
  <path class="cls-4" d="M223.25,404.89c-5.88-.05-11.49-2.44-15.59-6.66l-2.75-2.75c-8.59-8.64-8.59-22.6,0-31.23l22.62-22.62c8.66-8.6,22.63-8.6,31.29,0l2.7,2.7c8.63,8.64,8.63,22.64,0,31.29l-22.62,22.62c-4.11,4.22-9.75,6.62-15.64,6.66h0ZM243.18,348.44c-2.4,0-4.7.94-6.39,2.64l-22.62,22.62c-3.52,3.5-3.53,9.19-.03,12.71.01.01.02.02.03.03l2.75,2.75c3.52,3.5,9.21,3.5,12.74,0l22.67-22.67c3.48-3.55,3.48-9.24,0-12.79l-2.75-2.7c-1.7-1.68-4-2.61-6.39-2.59h0Z"/>
  <path class="cls-2" d="M223.51,159.34c-1.72,0-3.38-.69-4.6-1.9l-25.16-25.1c-2.55-2.56-2.55-6.69,0-9.25,2.52-2.55,6.64-2.58,9.19-.06.02.02.04.04.06.06l25.16,25.1c2.54,2.58,2.51,6.73-.07,9.27-1.22,1.2-2.87,1.88-4.58,1.88h0Z"/>
  <path class="cls-1" d="M147.67,281.96c-1.72,0-3.38-.69-4.6-1.9l-47.57-47.57c-2.72-2.39-2.99-6.53-.6-9.25,2.39-2.72,6.53-2.99,9.25-.6.21.19.41.38.6.6l47.57,47.57c2.54,2.58,2.51,6.73-.07,9.27-1.22,1.2-2.87,1.88-4.58,1.88Z"/>
  <path class="cls-5" d="M355.91,289.62c-1.74.01-3.4-.7-4.6-1.96-2.55-2.52-2.58-6.64-.06-9.19.02-.02.04-.04.06-.06l56.23-56.23c2.72-2.39,6.86-2.12,9.25.6,2.18,2.47,2.18,6.18,0,8.65l-56.23,56.23c-1.22,1.25-2.9,1.96-4.65,1.96h0Z"/>
  <path class="cls-10" d="M49.42,318.11c-2.95-.04-5.51-2.02-6.29-4.86C11.56,195.6,81.32,74.64,198.96,43.06c93.72-25.16,192.86,13.89,244.25,96.2,1.72,3.19.53,7.16-2.66,8.88-2.91,1.57-6.52.73-8.44-1.96C371.41,48.99,243.41,19.41,146.21,80.11c-77.46,48.38-114.18,141.72-90.45,229.91.96,3.43-1.04,6.99-4.47,7.95-.04.01-.08.02-.13.03-.57.11-1.16.15-1.74.11h0Z"/>
  <path class="cls-11" d="M256.55,476.5c-76.21.14-147.09-39.06-187.46-103.69-2.1-2.94-1.42-7.04,1.52-9.14,2.94-2.1,7.04-1.42,9.14,1.52.16.22.31.46.44.7,60.64,97.2,188.59,126.85,285.79,66.21,78.15-48.75,114.79-143.2,89.97-231.9-1.25-3.4.49-7.16,3.89-8.41,3.4-1.25,7.16.49,8.41,3.89.12.32.21.65.28.98,25.87,94.27-12.98,194.36-95.66,246.5-34.88,21.8-75.19,33.36-116.32,33.35h0Z"/>
</svg>