<svg width="67" height="67" viewBox="0 0 67 67" fill="none" xmlns="http://www.w3.org/2000/svg">
<path d="M27.0231 58.2048C23.2049 58.2034 19.4379 57.3254 16.0124 55.6385C12.587 53.9517 9.5945 51.501 7.26553 48.4753C4.93656 45.4495 3.33328 41.9295 2.57921 38.1865C1.82514 34.4434 1.94041 30.5772 2.91614 26.8857C3.89188 23.1942 5.70202 19.776 8.20712 16.8944C10.7122 14.0128 13.8454 11.7447 17.3653 10.2649C20.8851 8.78514 24.6977 8.13315 28.5093 8.35918C32.3208 8.58521 36.0297 9.68323 39.35 11.5686C39.4686 11.6361 39.5729 11.7263 39.6567 11.8341C39.7405 11.9419 39.8023 12.0651 39.8385 12.1968C39.8746 12.3284 39.8846 12.4659 39.8676 12.6014C39.8507 12.7368 39.8072 12.8676 39.7397 12.9863C39.6722 13.105 39.582 13.2092 39.4742 13.293C39.3665 13.3769 39.2432 13.4386 39.1116 13.4748C38.8457 13.5479 38.5617 13.5124 38.322 13.3761C34.8591 11.4098 30.9427 10.3821 26.9605 10.3945C22.9783 10.4069 19.0683 11.4592 15.6177 13.447C12.1671 15.4348 9.29549 18.2893 7.28706 21.728C5.27864 25.1667 4.20308 29.0702 4.16684 33.0523C4.13059 37.0343 5.13493 40.9568 7.08044 44.4315C9.02594 47.9061 11.8452 50.8124 15.259 52.8627C18.6729 54.913 22.563 56.0362 26.5443 56.1211C30.5256 56.206 34.4601 55.2497 37.9583 53.3468C38.2003 53.2148 38.4848 53.1843 38.7494 53.2621C38.8803 53.3006 39.0024 53.3645 39.1087 53.4502C39.2149 53.5359 39.3033 53.6417 39.3687 53.7615C39.434 53.8814 39.4752 54.0129 39.4897 54.1487C39.5043 54.2844 39.4919 54.4217 39.4534 54.5526C39.4149 54.6836 39.351 54.8057 39.2653 54.912C39.1796 55.0182 39.0738 55.1066 38.954 55.172C35.2923 57.1625 31.1908 58.2051 27.0231 58.2048Z" fill="white"/>
<path d="M27.0233 58.2048C17.2804 58.2048 9.35419 47.014 9.35419 33.2601C9.35419 19.5062 17.2804 8.31543 27.0233 8.31543C31.0976 8.31543 35.067 10.3048 38.2017 13.9176C38.3723 14.127 38.4547 14.3946 38.4315 14.6637C38.4082 14.9328 38.2811 15.1823 38.0771 15.3593C37.873 15.5363 37.6081 15.6269 37.3384 15.6119C37.0687 15.597 36.8155 15.4776 36.6322 15.2792C33.8582 12.0831 30.5364 10.3942 27.0233 10.3942C18.4268 10.3942 11.4329 20.6516 11.4329 33.2601C11.4329 45.8686 18.4268 56.1261 27.0233 56.1261C27.299 56.1261 27.5634 56.2356 27.7583 56.4305C27.9532 56.6254 28.0627 56.8898 28.0627 57.1655C28.0627 57.4411 27.9532 57.7055 27.7583 57.9004C27.5634 58.0953 27.299 58.2048 27.0233 58.2048Z" fill="white"/>
<path d="M27.0232 58.2048C21.6185 58.2048 18.7083 45.3531 18.7083 33.2601C18.7083 21.1671 21.6185 8.31543 27.0232 8.31543C28.5105 8.31543 30.6714 9.33297 32.5235 14.1806C32.5759 14.3088 32.6022 14.4462 32.6008 14.5848C32.5993 14.7233 32.5702 14.8601 32.5151 14.9873C32.46 15.1144 32.38 15.2292 32.2799 15.325C32.1798 15.4207 32.0615 15.4955 31.9321 15.5449C31.8027 15.5943 31.6646 15.6174 31.5262 15.6127C31.3877 15.608 31.2516 15.5756 31.1258 15.5175C31 15.4595 30.8871 15.3768 30.7937 15.2745C30.7003 15.1722 30.6283 15.0522 30.582 14.9216C29.4979 12.0862 28.1665 10.3942 27.0232 10.3942C24.4248 10.3942 20.787 19.0936 20.787 33.2601C20.787 47.4266 24.4248 56.1261 27.0232 56.1261C29.1435 56.1261 31.9311 50.6268 32.9216 40.4317C32.9318 40.2935 32.9694 40.1588 33.0325 40.0353C33.0955 39.9119 33.1825 39.8023 33.2885 39.7131C33.3945 39.6238 33.5172 39.5566 33.6495 39.5154C33.7819 39.4743 33.9211 39.46 34.059 39.4735C34.1969 39.4869 34.3308 39.5278 34.4526 39.5937C34.5745 39.6597 34.682 39.7493 34.7687 39.8574C34.8555 39.9654 34.9197 40.0898 34.9577 40.223C34.9957 40.3563 35.0066 40.4958 34.9899 40.6334C34.1657 49.1291 31.639 58.2048 27.0232 58.2048Z" fill="white"/>
<path d="M27.0232 22.8658H6.23599C5.96033 22.8658 5.69597 22.7563 5.50105 22.5614C5.30613 22.3665 5.19662 22.1021 5.19662 21.8265C5.19662 21.5508 5.30613 21.2864 5.50105 21.0915C5.69597 20.8966 5.96033 20.7871 6.23599 20.7871H27.0232C27.2989 20.7871 27.5633 20.8966 27.7582 21.0915C27.9531 21.2864 28.0626 21.5508 28.0626 21.8265C28.0626 22.1021 27.9531 22.3665 27.7582 22.5614C27.5633 22.7563 27.2989 22.8658 27.0232 22.8658Z" fill="white"/>
<path d="M33.2594 45.7325H6.23599C5.96033 45.7325 5.69597 45.623 5.50105 45.4281C5.30613 45.2332 5.19662 44.9688 5.19662 44.6932C5.19662 44.4175 5.30613 44.1531 5.50105 43.9582C5.69597 43.7633 5.96033 43.6538 6.23599 43.6538H33.2594C33.5351 43.6538 33.7994 43.7633 33.9943 43.9582C34.1893 44.1531 34.2988 44.4175 34.2988 44.6932C34.2988 44.9688 34.1893 45.2332 33.9943 45.4281C33.7994 45.623 33.5351 45.7325 33.2594 45.7325Z" fill="white"/>
<path d="M27.0232 34.2994H3.11785C2.8422 34.2994 2.57783 34.1899 2.38291 33.995C2.188 33.8001 2.07849 33.5357 2.07849 33.2601C2.07849 32.9844 2.188 32.72 2.38291 32.5251C2.57783 32.3302 2.8422 32.2207 3.11785 32.2207H27.0232C27.2988 32.2207 27.5632 32.3302 27.7581 32.5251C27.953 32.72 28.0625 32.9844 28.0625 33.2601C28.0625 33.5357 27.953 33.8001 27.7581 33.995C27.5632 34.1899 27.2988 34.2994 27.0232 34.2994Z" fill="white"/>
<path d="M35.3381 23.9056H31.1807C30.905 23.9056 30.6407 23.7961 30.4457 23.6012C30.2508 23.4063 30.1413 23.1419 30.1413 22.8662V18.7088C30.1413 18.4331 30.2508 18.1688 30.4457 17.9739C30.6407 17.7789 30.905 17.6694 31.1807 17.6694H35.3381C35.6138 17.6694 35.8782 17.7789 36.0731 17.9739C36.268 18.1688 36.3775 18.4331 36.3775 18.7088V22.8662C36.3775 23.1419 36.268 23.4063 36.0731 23.6012C35.8782 23.7961 35.6138 23.9056 35.3381 23.9056ZM32.2201 21.8269H34.2988V19.7482H32.2201V21.8269Z" fill="white"/>
<path d="M41.5744 31.1815H37.4169C37.1413 31.1815 36.8769 31.072 36.682 30.8771C36.4871 30.6821 36.3776 30.4178 36.3776 30.1421V25.9847C36.3776 25.709 36.4871 25.4447 36.682 25.2497C36.8769 25.0548 37.1413 24.9453 37.4169 24.9453H41.5744C41.85 24.9453 42.1144 25.0548 42.3093 25.2497C42.5042 25.4447 42.6137 25.709 42.6137 25.9847V30.1421C42.6137 30.4178 42.5042 30.6821 42.3093 30.8771C42.1144 31.072 41.85 31.1815 41.5744 31.1815ZM38.4563 29.1028H40.535V27.024H38.4563V29.1028Z" fill="white"/>
<path d="M34.2987 38.4569H30.1412C29.8656 38.4569 29.6012 38.3474 29.4063 38.1525C29.2114 37.9575 29.1019 37.6932 29.1019 37.4175V33.2601C29.1019 32.9844 29.2114 32.72 29.4063 32.5251C29.6012 32.3302 29.8656 32.2207 30.1412 32.2207H34.2987C34.5743 32.2207 34.8387 32.3302 35.0336 32.5251C35.2285 32.72 35.338 32.9844 35.338 33.2601V37.4175C35.338 37.6932 35.2285 37.9575 35.0336 38.1525C34.8387 38.3474 34.5743 38.4569 34.2987 38.4569ZM31.1806 36.3782H33.2593V34.2994H31.1806V36.3782Z" fill="white"/>
<path d="M48.8499 18.7089H42.6137C42.3381 18.7089 42.0737 18.5994 41.8788 18.4045C41.6839 18.2096 41.5744 17.9452 41.5744 17.6696V11.4334C41.5744 11.1577 41.6839 10.8934 41.8788 10.6985C42.0737 10.5035 42.3381 10.394 42.6137 10.394H48.8499C49.1256 10.394 49.3899 10.5035 49.5848 10.6985C49.7798 10.8934 49.8893 11.1577 49.8893 11.4334V17.6696C49.8893 17.9452 49.7798 18.2096 49.5848 18.4045C49.3899 18.5994 49.1256 18.7089 48.8499 18.7089ZM43.6531 16.6302H47.8105V12.4728H43.6531V16.6302Z" fill="white"/>
<path d="M48.8499 40.5356H42.6137C42.3381 40.5356 42.0737 40.4261 41.8788 40.2312C41.6839 40.0363 41.5744 39.7719 41.5744 39.4962V33.2601C41.5744 32.9844 41.6839 32.72 41.8788 32.5251C42.0737 32.3302 42.3381 32.2207 42.6137 32.2207H48.8499C49.1256 32.2207 49.3899 32.3302 49.5848 32.5251C49.7798 32.72 49.8893 32.9844 49.8893 33.2601V39.4962C49.8893 39.7719 49.7798 40.0363 49.5848 40.2312C49.3899 40.4261 49.1256 40.5356 48.8499 40.5356ZM43.6531 38.4569H47.8105V34.2994H43.6531V38.4569Z" fill="white"/>
<path d="M42.6139 51.9687H36.3777C36.1021 51.9687 35.8377 51.8592 35.6428 51.6643C35.4479 51.4694 35.3384 51.205 35.3384 50.9293V44.6932C35.3384 44.4175 35.4479 44.1531 35.6428 43.9582C35.8377 43.7633 36.1021 43.6538 36.3777 43.6538H42.6139C42.8896 43.6538 43.1539 43.7633 43.3489 43.9582C43.5438 44.1531 43.6533 44.4175 43.6533 44.6932V50.9293C43.6533 51.205 43.5438 51.4694 43.3489 51.6643C43.1539 51.8592 42.8896 51.9687 42.6139 51.9687ZM37.4171 49.89H41.5746V45.7325H37.4171V49.89Z" fill="white"/>
<path d="M57.1649 31.1807H48.85C48.5743 31.1807 48.3099 31.0712 48.115 30.8763C47.9201 30.6814 47.8106 30.417 47.8106 30.1414V21.8265C47.8106 21.5508 47.9201 21.2864 48.115 21.0915C48.3099 20.8966 48.5743 20.7871 48.85 20.7871H57.1649C57.4405 20.7871 57.7049 20.8966 57.8998 21.0915C58.0947 21.2864 58.2042 21.5508 58.2042 21.8265V30.1414C58.2042 30.417 58.0947 30.6814 57.8998 30.8763C57.7049 31.0712 57.4405 31.1807 57.1649 31.1807ZM49.8893 29.102H56.1255V22.8658H49.8893V29.102Z" fill="white"/>
<path d="M57.1649 58.2042H48.85C48.5743 58.2042 48.3099 58.0947 48.115 57.8997C47.9201 57.7048 47.8106 57.4405 47.8106 57.1648V48.8499C47.8106 48.5743 47.9201 48.3099 48.115 48.115C48.3099 47.9201 48.5743 47.8105 48.85 47.8105H57.1649C57.4405 47.8105 57.7049 47.9201 57.8998 48.115C58.0947 48.3099 58.2042 48.5743 58.2042 48.8499V57.1648C58.2042 57.4405 58.0947 57.7048 57.8998 57.8997C57.7049 58.0947 57.4405 58.2042 57.1649 58.2042ZM49.8893 56.1254H56.1255V49.8893H49.8893V56.1254Z" fill="white"/>
<path d="M25.984 9.35498H28.0627V57.1656H25.984V9.35498Z" fill="white"/>
</svg>
