<svg width="84" height="84" viewBox="0 0 84 84" fill="none" xmlns="http://www.w3.org/2000/svg">
<g clip-path="url(#clip0_5_2)">
<mask id="mask0_5_2" style="mask-type:luminance" maskUnits="userSpaceOnUse" x="0" y="0" width="84" height="84">
<path d="M84 0H0V84H84V0Z" fill="white"/>
</mask>
<g mask="url(#mask0_5_2)">
<path d="M42 84C30.78 84 20.23 79.63 12.3 71.7C4.37 63.77 0 53.22 0 42V38.72H6.56V42C6.56 51.47 10.25 60.37 16.94 67.06C23.63 73.75 32.53 77.44 42 77.44C51.47 77.44 60.37 73.75 67.06 67.06C73.75 60.37 77.44 51.47 77.44 42C77.44 32.53 73.75 23.63 67.06 16.94C60.37 10.25 51.47 6.56 42 6.56H38.72V0H42C53.22 0 63.77 4.37 71.7 12.3C79.63 20.23 84 30.78 84 42C84 53.22 79.63 63.77 71.7 71.7C63.77 79.63 53.22 84 42 84ZM42 67.59C27.89 67.59 16.41 56.11 16.41 42C16.41 27.89 27.89 16.41 42 16.41C56.11 16.41 67.59 27.89 67.59 42C67.59 56.11 56.11 67.59 42 67.59ZM42 22.97C31.51 22.97 22.97 31.51 22.97 42C22.97 52.49 31.51 61.03 42 61.03C52.49 61.03 61.03 52.49 61.03 42C61.03 31.51 52.49 22.97 42 22.97ZM54.47 45.28H38.72V29.53H45.28V38.72H54.47V45.28ZM8 31.47L1.94 28.96L4.45 22.9L10.51 25.41L8 31.47ZM14.62 19.26L9.98 14.62L14.62 9.98L19.26 14.62L14.62 19.26ZM25.41 10.52L22.9 4.46L28.96 1.95L31.47 8.01L25.41 10.52Z" fill="white"/>
<path d="M38.72 29.53H45.28V38.72H54.47V45.28H38.72V29.53Z" fill="white"/>
</g>
</g>
<defs>
<clipPath id="clip0_5_2">
<rect width="84" height="84" fill="white"/>
</clipPath>
</defs>
</svg>
