<svg width="83" height="84" viewBox="0 0 83 84" fill="none" xmlns="http://www.w3.org/2000/svg">
<mask id="mask0_1_58" style="mask-type:luminance" maskUnits="userSpaceOnUse" x="0" y="0" width="83" height="84">
<path d="M83 0H0V84H83V0Z" fill="white"/>
</mask>
<g mask="url(#mask0_1_58)">
<path fill-rule="evenodd" clip-rule="evenodd" d="M41.5 0C64.4 0 83 18.82 83 42C83 65.18 64.4 84 41.5 84C18.6 84 0 65.18 0 42C0 18.82 18.6 0 41.5 0ZM41.5 5.86C21.79 5.86 5.79 22.05 5.79 42C5.79 61.95 21.79 78.14 41.5 78.14C61.21 78.14 77.21 61.95 77.21 42C77.21 22.05 61.21 5.86 41.5 5.86Z" fill="white"/>
<path fill-rule="evenodd" clip-rule="evenodd" d="M58.63 36.66C60.56 37.73 61.76 39.77 61.76 42C61.76 44.23 60.56 46.27 58.63 47.34L33.98 60.95C32.12 61.98 29.86 61.94 28.03 60.84C26.21 59.75 25.09 57.76 25.09 55.61V28.39C25.09 26.24 26.21 24.25 28.03 23.16C29.86 22.06 32.11 22.02 33.98 23.05L58.63 36.66ZM55.86 41.81L31.21 28.2C31.14 28.16 31.06 28.16 30.99 28.2C30.92 28.24 30.88 28.31 30.88 28.39V55.61C30.88 55.69 30.92 55.76 30.99 55.8C31.06 55.84 31.14 55.84 31.21 55.8L55.86 42.19C55.93 42.15 55.98 42.08 55.98 41.99C55.98 41.9 55.94 41.83 55.86 41.79V41.81Z" fill="white"/>
</g>
</svg>
