<svg width="47" height="54" viewBox="0 0 47 54" fill="none" xmlns="http://www.w3.org/2000/svg">
<path d="M46.7813 36.4307L40.8504 22.4758C40.7201 22.1685 40.4764 21.9294 40.1641 21.8032C39.8518 21.677 39.5092 21.6792 39.2003 21.8099L36.3787 22.9964C36.0698 23.126 35.8294 23.3684 35.7025 23.679C35.5755 23.9896 35.5778 24.3292 35.7092 24.6375L35.8608 24.9928C33.3593 25.8933 31.0566 25.3514 28.8246 24.8252C26.7747 24.3415 24.837 23.8857 23.1049 24.7604C23.0836 24.7716 23.0622 24.7839 23.0409 24.7973C22.1243 25.3928 21.3672 25.9882 20.7213 26.5289C19.9856 26.1044 18.9814 26.196 17.93 26.2932C16.3922 26.4362 14.5096 26.6094 12.6967 25.4084L12.8326 25.1838C13.0056 24.8978 13.0572 24.5616 12.9763 24.2365C12.8955 23.9114 12.6933 23.6376 12.4057 23.4645L9.784 21.8892C9.18979 21.5328 8.4136 21.7228 8.05528 22.3138L0.181115 35.2833C0.00813103 35.5693 -0.0435395 35.9056 0.0373363 36.2307C0.118212 36.5558 0.320402 36.8295 0.607961 37.0027L3.22969 38.5779C3.433 38.6997 3.65653 38.7578 3.87782 38.7578C4.30466 38.7578 4.7214 38.5422 4.95728 38.1534L5.49983 37.2585C7.11285 37.6071 8.22826 38.407 8.62478 38.9064L7.43074 40.257C6.37486 41.4524 6.4928 43.2802 7.69471 44.3315C8.22714 44.7973 8.89886 45.0476 9.6054 45.0476C9.66943 45.0476 9.73345 45.0454 9.79748 45.0409C9.90644 45.0342 10.0143 45.0208 10.1199 45.0018C10.1154 45.8095 10.4479 46.6139 11.1038 47.1881C11.6363 47.654 12.308 47.9043 13.0145 47.9043C13.0786 47.9043 13.1426 47.902 13.2066 47.8976C13.2954 47.892 13.383 47.8819 13.4695 47.8685C13.4672 47.9557 13.4683 48.0428 13.474 48.1311C13.5245 48.9019 13.8716 49.6069 14.4523 50.1141C15.0027 50.5945 15.6857 50.8313 16.3664 50.8313C16.5237 50.8313 16.6809 50.8179 16.837 50.7933C16.8359 50.8738 16.837 50.9553 16.8415 51.0369C16.8921 51.8077 17.2392 52.5127 17.8199 53.0199C18.3703 53.5003 19.0533 53.7371 19.734 53.7371C20.3956 53.7371 21.0538 53.5137 21.5851 53.0758L21.6941 53.164C22.2625 53.6243 22.9421 53.85 23.6115 53.8489C24.4169 53.8489 25.2066 53.5226 25.7705 52.8836C26.1928 52.4054 26.4276 51.8256 26.4792 51.2346C26.8252 51.3754 27.1959 51.4514 27.5778 51.4514C27.6418 51.4514 27.7059 51.4491 27.7699 51.4447C28.545 51.3944 29.2537 51.0492 29.7637 50.4716C30.1905 49.9889 30.4242 49.3991 30.4714 48.7991C30.8027 48.9276 31.1566 48.9946 31.5194 48.9946C31.5834 48.9946 31.6474 48.9924 31.7115 48.9879C32.4865 48.9377 33.1953 48.5925 33.7053 48.0149C34.1625 47.4976 34.4006 46.8664 34.4287 46.2307C34.6971 46.3089 34.9735 46.3502 35.2498 46.3502C36.0563 46.3502 36.8594 46.0184 37.4323 45.3705C38.3545 44.3259 38.3815 42.7998 37.5727 41.7295C39.0015 40.9654 39.4677 40.2213 39.8552 39.6035C40.2023 39.0505 40.4674 38.6282 41.4739 38.2059L41.6367 38.588C41.84 39.065 42.3073 39.3521 42.7982 39.3521C42.9611 39.3521 43.1273 39.3208 43.2868 39.2538L46.1074 38.0673C46.4163 37.9378 46.6567 37.6953 46.7836 37.3847C46.9139 37.0775 46.9116 36.7379 46.7813 36.4307ZM3.84973 37.3859L1.37965 35.9022L9.16171 23.0846L11.6318 24.5683L3.84973 37.3859ZM9.71211 43.7047C9.29537 43.7304 8.89661 43.5975 8.58546 43.326C7.94183 42.7629 7.8778 41.7843 8.44393 41.1441L10.8118 38.4651C11.1185 38.1176 11.5487 37.94 11.9811 37.94C12.3462 37.94 12.7113 38.0662 13.0067 38.3243C13.3167 38.5958 13.502 38.9723 13.529 39.3868C13.556 39.8001 13.4212 40.1978 13.1482 40.5073L10.7803 43.1875C10.5085 43.4925 10.1288 43.6779 9.71211 43.7047ZM13.1224 46.5603C12.7068 46.5871 12.3058 46.4519 11.9957 46.1815C11.3521 45.6185 11.2881 44.6398 11.8542 43.9997L14.1603 41.3899C14.1805 41.3664 14.2007 41.343 14.2198 41.3184L14.2221 41.3195C14.495 41.0112 14.8736 40.8268 15.2903 40.8C15.7059 40.7721 16.1058 40.9073 16.4169 41.1787C17.0606 41.7418 17.1246 42.7205 16.5585 43.3606L14.1906 46.0408C13.9177 46.3491 13.5391 46.5346 13.1224 46.5603ZM15.3442 49.1086C14.7006 48.5455 14.6366 47.5669 15.2027 46.9267L16.8359 45.0789C17.1089 44.7705 17.4874 44.5862 17.9042 44.5594C18.3198 44.5337 18.7208 44.6666 19.0308 44.9381C19.6744 45.5012 19.7385 46.4798 19.1723 47.12L17.5391 48.9678C17.2661 49.2762 16.8876 49.4605 16.4709 49.4873C16.0553 49.5141 15.6542 49.379 15.3442 49.1086ZM18.7118 52.0133C18.0682 51.4502 18.0041 50.4716 18.5703 49.8314L18.8219 49.5465C19.388 48.9064 20.372 48.8427 21.0156 49.4058C21.6593 49.9688 21.7233 50.9475 21.1572 51.5877L20.9056 51.8725C20.3405 52.5127 19.3566 52.5764 18.7118 52.0133ZM36.4247 44.489C35.8586 45.1291 34.8746 45.1928 34.231 44.6298L27.9822 39.1678C27.7025 38.9231 27.2768 38.951 27.0308 39.2292C26.7848 39.5074 26.8129 39.9308 27.0926 40.1755L32.5955 44.985C32.5977 44.9873 32.5989 44.9895 32.6011 44.9906C33.1998 45.5548 33.2436 46.5167 32.6988 47.1334C32.4259 47.4417 32.0473 47.6261 31.6306 47.6529C31.2139 47.6786 30.814 47.5445 30.5039 47.2742L26.1322 43.4534C25.8525 43.2087 25.4267 43.2366 25.1807 43.5148C24.9347 43.793 24.9628 44.2164 25.2425 44.4611L28.6292 47.4216C28.6292 47.4216 28.6292 47.4227 28.6303 47.4227C29.2571 47.9869 29.3133 48.9589 28.755 49.5901C28.482 49.8985 28.1035 50.0828 27.6868 50.1096C27.2723 50.1353 26.8701 50.0012 26.5601 49.7309L24.2832 47.74C24.0035 47.4954 23.5778 47.5233 23.3318 47.8015C23.0858 48.0797 23.1139 48.5031 23.3936 48.7477L24.6191 49.818C25.2627 50.3811 25.3268 51.3597 24.7606 51.9999C24.208 52.6255 23.2352 52.6803 22.5467 52.1239L22.4714 52.0625C23.1869 50.8894 22.978 49.3343 21.9053 48.3981C21.4683 48.016 20.9471 47.7892 20.4091 47.7121C21.2133 46.5268 21.0269 44.899 19.9193 43.9304C19.424 43.4969 18.8073 43.25 18.1535 43.2187C18.4916 42.1596 18.1973 40.9519 17.3055 40.1721C16.7247 39.6649 15.9777 39.4125 15.2027 39.4627C15.0926 39.4694 14.9848 39.4828 14.8792 39.5018C14.8792 39.4348 14.8781 39.3666 14.8736 39.2985C14.823 38.5276 14.4759 37.8227 13.8952 37.3155C12.6933 36.2642 10.8556 36.3826 9.7986 37.578L9.51891 37.8942C8.8573 37.1658 7.69134 36.4496 6.22996 36.0553L11.9969 26.5569C14.1816 27.9847 16.3967 27.7802 18.0536 27.6271C18.6129 27.5758 19.1308 27.5277 19.525 27.559C19.2352 27.8092 18.969 28.0338 18.714 28.226C16.3293 30.0269 16.6259 31.9809 16.8876 33.7047C17.0797 34.9671 17.2605 36.1592 16.4709 37.3803C16.3585 37.5534 16.3327 37.7691 16.4012 37.9646C16.4697 38.1601 16.6248 38.312 16.8213 38.3779C18.0244 38.7824 19.3914 38.4963 20.5708 37.5925C21.9098 36.567 22.714 34.9939 22.6185 33.5852C22.5792 33.0053 22.9106 32.1373 23.4116 31.8423C23.5194 31.7798 23.8396 31.591 24.4484 31.9619L36.2832 42.3049C36.9268 42.8691 36.9909 43.8477 36.4247 44.489ZM38.7162 38.8985C38.3354 39.5063 37.9726 40.0828 36.5449 40.7509L25.2987 30.9218C25.2728 30.8994 25.2459 30.8793 25.2178 30.8614C24.0575 30.1207 23.1588 30.4358 22.7264 30.6905C21.693 31.2983 21.2066 32.6825 21.274 33.6768C21.3391 34.6364 20.7258 35.7838 19.7497 36.5323C19.2072 36.9479 18.6231 37.1803 18.0659 37.2138C18.5826 35.8944 18.3928 34.6387 18.2209 33.507C17.976 31.8915 17.7817 30.6156 19.5295 29.2962C19.9193 29.0024 20.3248 28.6483 20.7539 28.274C21.5672 27.5657 22.4871 26.7636 23.7452 25.9424C25.0325 25.3112 26.6466 25.6922 28.5124 26.1323C30.851 26.6831 33.4818 27.3032 36.3854 26.2318L40.9527 36.9781C39.5486 37.5702 39.1262 38.2439 38.7162 38.8985ZM42.8476 37.988L36.9852 24.1962L39.6429 23.079L45.5053 36.8708L42.8476 37.988ZM26.3804 14.2632C26.4074 14.2632 26.4343 14.2632 26.4602 14.2621V17.8271C26.4602 18.1969 26.7623 18.4974 27.1341 18.4974H40.9695C41.3413 18.4974 41.6435 18.1969 41.6435 17.8271V4.06659C41.6435 3.6968 41.3413 3.39628 40.9695 3.39628H35.9754C35.7395 3.39628 35.5205 3.51917 35.3981 3.72026C35.2767 3.92136 35.2689 4.17161 35.3801 4.37941C35.5317 4.66541 35.6092 4.97488 35.6092 5.3011C35.6092 6.39036 34.7185 7.27742 33.6222 7.27742C32.5258 7.27742 31.6351 6.39148 31.6351 5.3011C31.6351 4.97488 31.7126 4.66541 31.8642 4.37941C31.9743 4.17161 31.9676 3.92136 31.8463 3.72026C31.7238 3.51917 31.5048 3.39628 31.2689 3.39628H27.133C26.7612 3.39628 26.459 3.6968 26.459 4.06659V7.63157C26.4321 7.63045 26.4051 7.63045 26.3793 7.63045C24.5405 7.63045 23.0443 9.11856 23.0443 10.9474C23.0454 12.7763 24.5416 14.2632 26.3804 14.2632ZM26.3804 8.97109C26.5725 8.97109 26.7612 8.9979 26.9432 9.05152C27.1476 9.11185 27.3678 9.07163 27.5374 8.94539C27.7081 8.81915 27.8081 8.62029 27.8081 8.40802V4.73691H30.3377C30.3051 4.92348 30.2894 5.11229 30.2894 5.3011C30.2894 7.12995 31.7856 8.61805 33.6244 8.61805C35.4632 8.61805 36.9594 7.12995 36.9594 5.3011C36.9594 5.11117 36.9426 4.92237 36.9111 4.73691H40.2989V17.1568H27.8081V13.4846C27.8081 13.2734 27.7081 13.0745 27.5374 12.9472C27.3666 12.8209 27.1465 12.7818 26.9432 12.8411C26.7612 12.8947 26.5714 12.9215 26.3793 12.9215C25.2841 12.9215 24.3922 12.0356 24.3922 10.9452C24.3922 9.85479 25.2852 8.97109 26.3804 8.97109ZM6.53436 18.4974H20.3698C20.7416 18.4974 21.0437 18.1969 21.0437 17.8271V12.86C21.0437 12.6254 20.9202 12.4076 20.718 12.2858C20.5158 12.1652 20.2642 12.1573 20.0552 12.2668C19.7677 12.4176 19.4565 12.4947 19.1285 12.4947C18.0333 12.4947 17.1415 11.6088 17.1415 10.5184C17.1415 9.42802 18.0322 8.54208 19.1285 8.54208C19.4554 8.54208 19.7677 8.61917 20.0552 8.76999C20.2642 8.87948 20.5158 8.87277 20.718 8.751C20.9202 8.63034 21.0437 8.41137 21.0437 8.17676V4.06659C21.0437 3.6968 20.7416 3.39628 20.3698 3.39628H16.7854C16.7865 3.36946 16.7865 3.34265 16.7865 3.31696C16.7865 1.48811 15.2903 0 13.4515 0C11.6127 0 10.1176 1.48811 10.1176 3.31696C10.1176 3.34377 10.1176 3.37058 10.1187 3.39628H6.53436C6.16256 3.39628 5.8604 3.6968 5.8604 4.06659V17.8271C5.8604 18.198 6.16256 18.4974 6.53436 18.4974ZM7.20833 4.73691H10.9005C11.1128 4.73691 11.3128 4.63748 11.4408 4.46767C11.5678 4.29785 11.6071 4.07888 11.5475 3.87667C11.4936 3.69569 11.4667 3.50688 11.4667 3.31696C11.4667 2.22769 12.3574 1.34064 13.4526 1.34064C14.5478 1.34064 15.4397 2.22657 15.4397 3.31696C15.4397 3.508 15.4127 3.69569 15.3588 3.87667C15.2982 4.08 15.3386 4.29897 15.4655 4.46767C15.5925 4.63748 15.7924 4.73691 16.0058 4.73691H19.698V7.25284C19.5104 7.22044 19.3206 7.2048 19.1308 7.2048C17.292 7.2048 15.7958 8.6929 15.7958 10.5218C15.7958 12.3506 17.292 13.8387 19.1308 13.8387C19.3217 13.8387 19.5116 13.822 19.698 13.7907V17.159H7.20833V4.73691Z" fill="url(#paint0_linear_263_590)"/>
<defs>
<linearGradient id="paint0_linear_263_590" x1="-0.00558164" y1="26.9164" x2="46.8802" y2="26.9164" gradientUnits="userSpaceOnUse">
<stop stop-color="#FCB017"/>
<stop offset="1" stop-color="#EE3024"/>
</linearGradient>
</defs>
</svg>
