<svg width="84" height="84" viewBox="0 0 84 84" fill="none" xmlns="http://www.w3.org/2000/svg">
<path d="M42 84C18.45 84 0 73.56 0 60.2C0 51.27 8.15 43.43 21.81 39.26L24.58 38.42L25.34 41.22C31.19 63.14 39.14 77.87 42.06 78.4V84H42ZM20.72 45.53C11.31 49 5.59998 54.46 5.59998 60.2C5.59998 68.71 17.98 76.08 34.05 77.95C27.86 68.99 22.74 52.53 20.72 45.55V45.52V45.53ZM42 84V78.4C44.86 77.9 52.81 63.14 58.66 41.22L59.42 38.42L62.19 39.26C75.85 43.43 84 51.24 84 60.2C84 73.56 65.55 84 42 84ZM63.28 45.53C61.26 52.5 56.14 68.99 49.95 77.93C66.02 76.05 78.4 68.69 78.4 60.18C78.4 54.47 72.69 48.98 63.28 45.51V45.54V45.53ZM42 0C28.11 0 16.8 11.31 16.8 25.2C16.8 29.88 18.51 37.27 19.91 42.67C21.03 46.9 31.25 84 42 84C52.75 84 62.94 46.9 64.09 42.67C65.52 37.29 67.2 29.87 67.2 25.2C67.2 11.31 55.89 0 42 0ZM42 36.4C35.81 36.4 30.8 31.39 30.8 25.2C30.8 19.01 35.81 14 42 14C48.19 14 53.2 19.01 53.2 25.2C53.2 31.39 48.19 36.4 42 36.4Z" fill="url(#paint0_linear_1_32)"/>
<defs>
<linearGradient id="paint0_linear_1_32" x1="0" y1="42" x2="84" y2="42" gradientUnits="userSpaceOnUse">
<stop stop-color="#FCB017"/>
<stop offset="1" stop-color="#EE3024"/>
</linearGradient>
</defs>
</svg>
