<svg width="47" height="46" viewBox="0 0 47 46" fill="none" xmlns="http://www.w3.org/2000/svg">
<path d="M44.2101 40.5888V3.09068C44.2101 1.38649 42.8232 0 41.1185 0H34.7679C33.0636 0 31.6772 1.38649 31.6772 3.09068V16.6957L29.3066 17.4887V9.42235C29.3066 7.71816 27.9202 6.33167 26.2159 6.33167H19.8653C18.161 6.33167 16.7746 7.71816 16.7746 9.42235V21.7142L16.6563 21.6404C16.0976 21.2924 15.4744 21.1204 14.854 21.1093V16.8186C14.854 15.1138 13.4675 13.727 11.7633 13.727H5.41274C3.70801 13.727 2.32116 15.1138 2.32116 16.8186V20.7958C2.32116 21.1686 2.62339 21.4708 2.99618 21.4708C3.36897 21.4708 3.6712 21.1686 3.6712 20.7958V16.8186C3.6712 15.8583 4.45251 15.077 5.41274 15.077H11.7633C12.7231 15.077 13.504 15.8583 13.504 16.8186V21.3469C12.885 21.5846 12.3269 21.9957 11.913 22.5653L5.08721 31.9597C3.93841 33.5403 4.29032 35.7616 5.87203 36.9114C6.48188 37.3542 7.20136 37.5883 7.95261 37.5883C9.08538 37.5883 10.1586 37.0418 10.8234 36.1266L13.504 32.4373V40.4971H3.6712V23.4958C3.6712 23.1231 3.36897 22.8208 2.99618 22.8208C2.62339 22.8208 2.32116 23.1231 2.32116 23.4958V40.5077C1.02225 40.6221 0 41.7154 0 43.0436C0 44.4476 1.14222 45.5898 2.54626 45.5898H43.535C44.939 45.5898 46.0812 44.4476 46.0812 43.0435C46.0812 41.8733 45.2873 40.8855 44.2101 40.5888ZM29.3066 40.4973V32.6351L31.6772 29.9562V40.4973H29.3066ZM18.1247 40.4973V30.9097L23.7723 34.4297C25.1072 35.2622 26.7953 35.1134 27.9565 34.1116V40.4972L18.1247 40.4973ZM18.1247 9.42235C18.1247 8.46257 18.9055 7.6817 19.8653 7.6817H26.2159C27.1757 7.6817 27.9565 8.46257 27.9565 9.42235V17.9403L27.5869 18.0639C26.6547 18.3754 25.9809 19.1365 25.7848 20.0999C25.5887 21.0633 25.911 22.0272 26.647 22.6783L27.7706 23.6728L24.9789 26.8278L18.1247 22.5556V9.42235ZM9.73124 35.3332C9.31948 35.9001 8.65454 36.2385 7.95261 36.2385C7.4882 36.2385 7.04305 36.0935 6.66558 35.8193C5.68626 35.1073 5.4681 33.732 6.17929 32.7535L13.0051 23.359C13.679 22.4317 14.9694 22.1803 15.9424 22.7863L24.7492 28.2755C25.0289 28.4499 25.3934 28.3967 25.6118 28.15L29.2289 24.0621C29.4759 23.7829 29.4499 23.3563 29.1708 23.1093L27.5416 21.6674C27.1711 21.3396 27.0089 20.8544 27.1076 20.3693C27.2065 19.8843 27.5455 19.5012 28.015 19.3444L37.5831 16.1439C38.0523 15.9871 38.5535 16.0893 38.9241 16.4173C39.2946 16.7454 39.457 17.2306 39.3581 17.7155L38.7479 20.7162C38.6737 21.0815 38.9096 21.4379 39.2748 21.5122C39.6405 21.5863 39.9966 21.3506 40.0709 20.9852L40.681 17.9848C40.8772 17.0218 40.5549 16.058 39.8189 15.4064C39.0827 14.7549 38.0869 14.5519 37.1549 14.8635L33.0273 16.2442V3.09068C33.0273 2.1309 33.8081 1.35004 34.7679 1.35004H41.1186C42.0788 1.35004 42.8601 2.1309 42.8601 3.09068V40.4973H33.0273V28.4307L33.08 28.3711L34.2038 29.3658C34.9405 30.017 35.9366 30.2194 36.8689 29.9074C37.8007 29.5956 38.4741 28.8345 38.6703 27.8713L39.5345 23.6214C39.6087 23.2561 39.3728 22.8997 39.0075 22.8254C38.6422 22.7511 38.2858 22.9872 38.2115 23.3524L37.3475 27.602C37.2487 28.0869 36.9096 28.4701 36.4404 28.6272C35.9709 28.7843 35.469 28.6822 35.0983 28.3545L33.4693 26.9127C33.3353 26.7941 33.1608 26.7336 32.9807 26.7444C32.8021 26.7554 32.635 26.8367 32.5164 26.9708L27.2906 32.8761C26.5785 33.6816 25.3993 33.8533 24.4867 33.2841L15.8888 27.9253C15.5881 27.7378 15.1939 27.8148 14.9857 28.1014L9.73124 35.3332ZM14.854 30.5793L15.7082 29.4036L16.7746 30.0683V40.4973H14.854V30.5793ZM43.535 44.2398H2.54626C1.88663 44.2398 1.35004 43.7032 1.35004 43.0435C1.35004 42.3838 1.88663 41.8472 2.54626 41.8472L43.5351 41.8474C43.5358 41.8474 43.5365 41.8473 43.5372 41.8473C44.1959 41.8485 44.7312 42.3846 44.7312 43.0435C44.7312 43.7032 44.1946 44.2398 43.535 44.2398Z" fill="url(#paint0_linear_263_602)"/>
<defs>
<linearGradient id="paint0_linear_263_602" x1="-0.00548651" y1="22.7881" x2="46.0812" y2="22.7881" gradientUnits="userSpaceOnUse">
<stop stop-color="#FCB017"/>
<stop offset="1" stop-color="#EE3024"/>
</linearGradient>
</defs>
</svg>
