<svg width="84" height="85" viewBox="0 0 84 85" fill="none" xmlns="http://www.w3.org/2000/svg">
<path d="M42.3799 71.615C41.1799 71.615 40.01 71.295 38.97 70.705L18.65 58.985C15.38 57.095 14.26 52.915 16.15 49.645L19.08 44.565C22.22 40.195 27.23 37.545 32.61 37.415C33.11 37.325 33.44 36.855 33.36 36.355C33.36 36.305 33.3399 36.245 33.3199 36.195C30.7399 31.465 30.53 25.795 32.75 20.895L35.68 15.815C37.57 12.555 41.75 11.435 45.02 13.315L65.34 25.035C68.61 26.925 69.73 31.105 67.84 34.375L64.91 39.455C61.77 43.825 56.7599 46.475 51.3799 46.615C50.8799 46.695 50.5499 47.165 50.6299 47.665C50.6299 47.725 50.66 47.785 50.68 47.835C53.26 52.565 53.47 58.235 51.25 63.145L48.3199 68.225C47.0999 70.345 44.84 71.645 42.4 71.645L42.3799 71.615ZM41.6 18.235C41.25 18.235 40.93 18.415 40.75 18.725L37.8199 23.805C36.6199 27.145 36.95 30.835 38.72 33.905C40.15 37.375 38.5 41.335 35.03 42.765C34.49 42.985 33.92 43.145 33.34 43.215C29.8 43.215 26.44 44.785 24.15 47.485L21.22 52.565C20.95 53.035 21.1099 53.625 21.5699 53.905L41.89 65.625C42.36 65.885 42.95 65.725 43.22 65.265L46.15 60.185C47.35 56.845 47.02 53.155 45.25 50.085C43.82 46.625 45.46 42.655 48.93 41.225C49.48 40.995 50.0499 40.845 50.6299 40.765C54.1699 40.755 57.5299 39.195 59.8199 36.495L62.75 31.415C63.02 30.945 62.86 30.355 62.4 30.075L42.08 18.355C41.93 18.275 41.77 18.225 41.59 18.225L41.6 18.235ZM83.99 41.995C83.99 30.855 79.56 20.175 71.68 12.295C55.27 -4.105 28.68 -4.09499 12.28 12.305C10.88 13.715 9.56999 15.215 8.37 16.795C7.39999 18.085 7.65996 19.925 8.95996 20.895C10.25 21.865 12.09 21.605 13.06 20.305C14.09 18.935 15.22 17.635 16.43 16.425C23.21 9.645 32.4 5.835 41.99 5.835C61.95 5.835 78.1299 22.015 78.1299 41.975C78.1299 43.595 79.44 44.905 81.06 44.905C82.68 44.905 83.99 43.595 83.99 41.975V41.995ZM71.69 71.695C73.09 70.285 74.4 68.785 75.6 67.195C76.44 65.945 76.2 64.265 75.05 63.305C73.8 62.265 71.95 62.435 70.92 63.675C69.89 65.045 68.77 66.335 67.56 67.555C60.78 74.335 51.59 78.145 42 78.145C22.04 78.145 5.85999 61.965 5.85999 42.005C5.85999 40.385 4.54999 39.075 2.92999 39.075C1.30999 39.075 0 40.385 0 42.005V42.025C0 65.215 18.81 84.015 42 84.015C53.15 84.045 63.84 79.615 71.7 71.705L71.69 71.695ZM78.0699 75.145V64.095C78.0699 62.475 76.76 61.165 75.14 61.165H64.09C62.47 61.165 61.16 62.475 61.16 64.095C61.16 65.715 62.47 67.025 64.09 67.025H72.21V75.145C72.21 76.765 73.52 78.075 75.14 78.075C76.76 78.075 78.0699 76.765 78.0699 75.145ZM22.8199 19.895C22.8199 18.275 21.51 16.965 19.89 16.965H11.77V8.84501C11.77 7.22501 10.46 5.91499 8.83997 5.91499C7.21997 5.91499 5.90997 7.22501 5.90997 8.84501V19.895C5.90997 21.515 7.21997 22.825 8.83997 22.825H19.89C21.51 22.825 22.8199 21.515 22.8199 19.895Z" fill="url(#paint0_linear_1_41)"/>
<defs>
<linearGradient id="paint0_linear_1_41" x1="-0.01" y1="41.995" x2="83.99" y2="41.995" gradientUnits="userSpaceOnUse">
<stop stop-color="#FCB017"/>
<stop offset="1" stop-color="#EE3024"/>
</linearGradient>
</defs>
</svg>
