<svg width="57" height="57" viewBox="0 0 57 57" fill="none" xmlns="http://www.w3.org/2000/svg">
<g clip-path="url(#clip0_263_594)">
<path d="M18.8233 19.5762C19.1481 20.0081 19.6437 20.2356 20.1452 20.2356C20.4911 20.2356 20.84 20.1272 21.1372 19.9035C21.8668 19.3551 22.0135 18.3188 21.465 17.5897C20.3732 16.1374 19.7719 14.3376 19.7719 12.521C19.7719 10.578 20.4502 8.67963 21.6818 7.17663C22.2599 6.47072 22.1567 5.42929 21.4508 4.85072C20.7449 4.27257 19.7035 4.37581 19.1249 5.08171C17.4107 7.17404 16.4665 9.81613 16.4665 12.521C16.4665 15.05 17.3036 17.5552 18.8233 19.5762Z" fill="white"/>
<path d="M15.2934 24.6706C15.6599 24.6706 16.0286 24.5493 16.3349 24.3002C17.0434 23.7246 17.1505 22.6836 16.5749 21.9756C14.409 19.3116 13.2166 15.9537 13.2166 12.5205C13.2166 8.92864 14.5084 5.45247 16.8545 2.7321C17.4503 2.04125 17.3733 0.997665 16.682 0.401454C15.9912 -0.194327 14.9476 -0.117327 14.3514 0.57352C11.4882 3.89354 9.91119 8.13671 9.91119 12.521C9.91119 16.7108 11.3669 20.809 14.0102 24.0606C14.3367 24.4624 14.8129 24.6706 15.2934 24.6706Z" fill="white"/>
<path d="M36.6417 12.521C36.6417 14.3376 36.0408 16.1379 34.9486 17.5897C34.4001 18.3192 34.5468 19.3551 35.2764 19.9035C35.5736 20.1272 35.9225 20.2356 36.2683 20.2356C36.7699 20.2356 37.2655 20.0081 37.5902 19.5762C39.11 17.5552 39.9471 15.0495 39.9471 12.521C39.9471 9.81613 39.0033 7.17404 37.2887 5.08171C36.7101 4.37581 35.6691 4.27257 34.9628 4.85072C34.2573 5.42929 34.1536 6.47029 34.7322 7.17619C35.9638 8.68006 36.6417 10.578 36.6417 12.521Z" fill="white"/>
<path d="M43.197 12.5204C43.197 15.9535 42.0045 19.3114 39.8387 21.9754C39.2627 22.6835 39.3702 23.7245 40.0787 24.3C40.385 24.5491 40.7536 24.6704 41.1201 24.6704C41.6002 24.6704 42.0768 24.4618 42.4033 24.06C45.0467 20.8088 46.5024 16.7106 46.5024 12.5204C46.5024 8.13611 44.9254 3.89338 42.0622 0.573352C41.466 -0.117926 40.4224 -0.194925 39.7311 0.401285C39.0403 0.997066 38.9633 2.04065 39.559 2.73193C41.9052 5.4523 43.197 8.92847 43.197 12.5204Z" fill="white"/>
<path d="M43.743 53.0779H39.1037L30.6591 17.0842C32.2817 16.2075 33.3868 14.4907 33.3868 12.5205C33.3868 9.66294 31.0617 7.33789 28.2041 7.33789C25.3465 7.33789 23.0215 9.66294 23.0215 12.5205C23.0215 14.4911 24.1266 16.2075 25.7492 17.0842L17.3046 53.0779H12.6742C11.7614 53.0779 11.0215 53.8178 11.0215 54.7306C11.0215 55.643 11.7614 56.3829 12.6742 56.3829H43.743C44.6558 56.3829 45.3957 55.643 45.3957 54.7306C45.3957 53.8178 44.6558 53.0779 43.743 53.0779ZM32.5897 39.784L26.2701 36.0162L31.0488 33.2163L32.5897 39.784ZM28.2041 10.6433C29.2395 10.6433 30.0818 11.4856 30.0818 12.5205C30.0818 13.5559 29.2395 14.3982 28.2041 14.3982C27.1691 14.3982 26.3269 13.5559 26.3269 12.5205C26.3269 11.4856 27.1691 10.6433 28.2041 10.6433ZM28.2041 21.0916L30.2586 29.8485L25.4949 32.6398L28.2041 21.0916ZM24.1029 38.5723L31.8386 43.1841L21.6002 49.2404L24.1029 38.5723ZM21.6045 53.0779L33.9898 45.7518L35.7084 53.0779H21.6045Z" fill="white"/>
</g>
<defs>
<clipPath id="clip0_263_594">
<rect width="56.3829" height="56.3829" fill="white"/>
</clipPath>
</defs>
</svg>
